<?xml version="1.0" encoding="utf-8"?>
<!-- Generator: Adobe Illustrator 16.0.0, SVG Export Plug-In . SVG Version: 6.00 Build 0)  -->
<!DOCTYPE svg PUBLIC "-//W3C//DTD SVG 1.1//EN" "http://www.w3.org/Graphics/SVG/1.1/DTD/svg11.dtd">
<svg version="1.1" id="Layer_1" xmlns="http://www.w3.org/2000/svg" xmlns:xlink="http://www.w3.org/1999/xlink" x="0px" y="0px"
	 width="166px" height="166px" viewBox="174 0 166 166" enable-background="new 174 0 166 166" xml:space="preserve">
<g>
	<path fill="none" stroke="#FFFFFF" stroke-width="8" stroke-miterlimit="10" d="M257.505,53.125
		c-23.75-18.494-56.255-19.96-76.403-8.66c-0.786,6.899-0.704,59.055-0.314,93.2c9.128-7.777,50.68-18.642,76.518,3.375
		c25.838-22.017,67.389-11.152,76.517-3.375c0.388-34.146,0.472-86.301-0.314-93.2C313.36,33.164,281.254,34.631,257.505,53.125"/>
	<path fill="#FFFFFF" stroke="#FFFFFF" stroke-miterlimit="10" d="M257.305,125.758c-22.088-17.026-53.751-10.604-65.976-3.882
		c0.126-18.372,1.048-76.018,1.174-88.118c10.753-10.604,47.777-8.513,64.802,10.604c17.024-19.117,54.047-21.208,64.801-10.604
		c0.127,12.1,1.047,69.746,1.174,88.118C311.055,115.154,279.391,108.731,257.305,125.758z"/>
</g>
</svg>
