<?xml version="1.0" encoding="utf-8"?>
<!-- Generator: Adobe Illustrator 16.0.0, SVG Export Plug-In . SVG Version: 6.00 Build 0)  -->
<!DOCTYPE svg PUBLIC "-//W3C//DTD SVG 1.1//EN" "http://www.w3.org/Graphics/SVG/1.1/DTD/svg11.dtd">
<svg version="1.1" id="Layer_1" xmlns="http://www.w3.org/2000/svg" xmlns:xlink="http://www.w3.org/1999/xlink" x="0px" y="0px"
	 width="166px" height="166px" viewBox="0 0 166 166" enable-background="new 0 0 166 166" xml:space="preserve">
<path fill="#FFFFFF" d="M147.373,138.644c-0.436-1.88-1.214-4.805-2.037-7.901c-1.147-4.306-2.447-9.183-3.124-12.402
	c-1.531-7.268-5.198-11.338-11.537-12.81c-4.058-0.942-17.55-4.587-25.123-7.99c-5.318-2.389-7.811-7.523-7.415-15.265
	c3.191-3.393,5.165-7.945,6.203-14.297c0.848-5.17,2.415-14.756,3.091-28.618l22.044-12.208c0.22-0.122,0.354-0.352,0.354-0.603
	s-0.136-0.482-0.354-0.604L83.334,0.466c-0.207-0.114-0.461-0.114-0.667,0l-46.14,25.48c-0.219,0.122-0.355,0.352-0.355,0.604
	c0,0.25,0.137,0.481,0.355,0.603l11.754,6.511v4.048c-1.072,0.416-1.836,1.452-1.836,2.669c0,0.797,0.328,1.545,0.898,2.083
	c-0.697,2.625-1.752,9.051-2.465,13.392c-0.174,1.047-0.32,1.948-0.434,2.603c-0.042,0.251,0.058,0.505,0.26,0.661
	c1.121,0.865,2.631,1.324,4.363,1.324l0,0c1.795,0,3.738-0.526,4.836-1.309c0.195-0.14,0.305-0.373,0.286-0.613
	c-0.206-2.668-2.024-12.571-2.988-15.99c0.615-0.541,0.98-1.323,0.98-2.149c0-1.217-0.765-2.252-1.837-2.669v-2.903l8.226,4.554
	c0.675,13.862,2.243,23.447,3.089,28.618c1.039,6.353,3.014,10.903,6.205,14.296c0.396,7.742-2.099,12.876-7.415,15.265
	c-7.577,3.405-21.067,7.049-25.124,7.99c-6.342,1.472-10.006,5.542-11.537,12.81c-0.678,3.219-1.979,8.099-3.125,12.404
	c-0.824,3.095-1.602,6.018-2.037,7.899c-0.05,0.22,0.01,0.449,0.162,0.616C33.475,155.503,58.678,166,83.002,166
	c24.322,0,49.524-10.497,64.211-26.739C147.362,139.094,147.422,138.864,147.373,138.644z"/>
</svg>
