<?xml version="1.0" encoding="utf-8"?>
<!-- Generator: Adobe Illustrator 16.0.0, SVG Export Plug-In . SVG Version: 6.00 Build 0)  -->
<!DOCTYPE svg PUBLIC "-//W3C//DTD SVG 1.1//EN" "http://www.w3.org/Graphics/SVG/1.1/DTD/svg11.dtd">
<svg version="1.1" id="Nucleus" xmlns="http://www.w3.org/2000/svg" xmlns:xlink="http://www.w3.org/1999/xlink" x="0px" y="0px"
	 width="1613.677px" height="1604.577px" viewBox="0 0 1613.677 1604.577" enable-background="new 0 0 1613.677 1604.577"
	 xml:space="preserve">
<path fill="#fff" d="M1031.624,1152.596c-156.498,92.945-358.707,41.433-451.652-115.065
	c-92.947-156.489-41.425-358.689,115.055-451.645c156.491-92.943,358.707-41.431,451.646,115.072
	C1239.624,857.441,1188.112,1059.642,1031.624,1152.596z"/>
<path fill="#fff" d="M990.482,359.582c146.001-150.005,272.428-181.902,237.568,12.081
	c-34.501,191.99-113.666,432.002-284.987,679.466c-53.998,77.997-142.494,181.491-199.491,227.989
	c-126.944,103.561-202.026,117.905-174.423-58.535c3.833-24.501-1.704-26.82-8.667-1.334
	c-68.667,251.334,72.228,203.567,196.009,81.072c180.571-178.695,327.567-418.682,429.563-673.669
	c57.235-143.089,128.429-394.07,62.429-430.07c-36.154-19.72-82.355-12.398-131.55,23.8
	c-76.503,56.29-116.22,112.54-131.536,137.685C980.096,366.769,986.332,363.846,990.482,359.582z"/>
<path fill="#fff" d="M394.483,750.577c-33-10.5-86-23-130.5-26c-45.515-3.068-60.646,9.138-30.5,42c55.5,60.5,266,140,369,180
	c95.671,37.154,416.064,139.766,555.071,170.551c174.064,38.549,231.262,29.116,211.262-5.55
	c-11.838-20.519-71.333-49.334-123.333-63.501c-35.478-9.666-32.185-6.781,4.5,8.5c136.833,57.001,85.264,79.151-22.5,57
	c-245.42-50.447-525-137-829-277c-96.298-44.348-223-122-10.5-79C461.813,772.516,433.496,762.99,394.483,750.577z"/>
<path fill="#fff" d="M270.15,1058.576c-33.099,10.185-92.667,30.667-133.333,55.333c-39.004,23.658-28.124,50.195,16,56.667
	c150,22,373.199-21.041,482.063-39.952c134.604-23.383,419.937-100.716,561.145-149.36
	c197.82-68.146,242.788-126.382,207.459-145.189c-20.908-11.133-78.5-17-139.333-8.833c-36.445,4.893-33.167,5.833,2.667,5.334
	c157.654-2.195,98.382,64.261-13.362,108.636c-216.639,86.03-517.207,167.438-849.873,204.17
	c-107.432,11.862-331.272,11.878-133.432-76.806C328.15,1042.576,330.816,1039.91,270.15,1058.576z"/>
</svg>
