<?xml version="1.0" encoding="utf-8"?>
<!-- Generator: Adobe Illustrator 16.0.0, SVG Export Plug-In . SVG Version: 6.00 Build 0)  -->
<!DOCTYPE svg PUBLIC "-//W3C//DTD SVG 1.1//EN" "http://www.w3.org/Graphics/SVG/1.1/DTD/svg11.dtd">
<svg version="1.1" id="Layer_1" xmlns="http://www.w3.org/2000/svg" xmlns:xlink="http://www.w3.org/1999/xlink" x="0px" y="0px"
	 width="166px" height="166px" viewBox="346.5 0 166 166" enable-background="new 346.5 0 166 166" xml:space="preserve">
<g>
	<path fill="#FFFFFF" d="M388.498,145.469h-25.613c-0.855,0-1.551-0.693-1.551-1.551v-21.622H348.16
		c-0.584,0-1.123-0.33-1.386-0.851c-0.263-0.522-0.211-1.148,0.135-1.62l27.534-37.438c0.29-0.396,0.756-0.632,1.248-0.632
		c0.494,0,0.958,0.235,1.25,0.632l27.532,37.438c0.347,0.472,0.398,1.098,0.134,1.62c-0.263,0.521-0.799,0.851-1.384,0.851h-13.175
		v21.622C390.049,144.775,389.354,145.469,388.498,145.469z"/>
	<path fill="#FFFFFF" d="M500.101,39.039h-13.014c-1.804-3.688-4.758-9.462-6.78-12.636c-1.38-2.171-4.934-3.467-9.505-3.467h-35.19
		c-4.57,0-8.125,1.296-9.506,3.467c-2.021,3.174-4.975,8.948-6.778,12.636h-13.094v-6.242c0-1.187-0.963-2.147-2.148-2.147h-22.06
		c-1.186,0-2.146,0.96-2.146,2.147v6.242h-7.175c-6.85,0-12.402,5.552-12.402,12.4v38.528l13.62-18.517
		c0.413-0.563,1.071-0.897,1.769-0.897c0.699,0,1.356,0.334,1.77,0.897l38.998,53.029c0.491,0.667,0.564,1.555,0.189,2.295
		c-0.371,0.738-1.133,1.205-1.958,1.205h-18.662v7.957h104.072c6.848,0,12.399-5.552,12.399-12.4V51.439
		C512.5,44.59,506.948,39.039,500.101,39.039z M453.206,127.38c-19.879,0-35.995-16.114-35.995-35.996
		c0-19.879,16.116-35.994,35.995-35.994c19.882,0,35.995,16.115,35.995,35.994C489.201,111.266,473.088,127.38,453.206,127.38z"/>
	<path fill="#FFFFFF" d="M453.124,64.677c-14.938,0-27.049,12.111-27.049,27.052c0,14.939,12.11,27.05,27.049,27.05
		c14.94,0,27.053-12.11,27.053-27.05C480.177,76.788,468.064,64.677,453.124,64.677z M462.482,90.127
		c-4.786,0-8.669-3.883-8.669-8.668c0-4.789,3.883-8.669,8.669-8.669c4.788,0,8.669,3.88,8.669,8.669
		C471.151,86.244,467.271,90.127,462.482,90.127z"/>
</g>
</svg>
